# xmcd CD database file
#
# Track frame offsets:
#	182
#	16225
#	30237
#	44150
#	59685
#	74987
#	90525
#	104382
#	117462
#	129920
#	142715
#	157320
#	169562
#	184030
#	195520
#	210582
#	225502
#	240835
#	253762
#	268025
#	280870
#	295850
#
# Disc length: 4137 seconds
#
# Revision: 0
# Processed by: cddbd v1.5.1PL0 Copyright (c) Steve Scherf et al.
# Submitted via: CDex 1.51
#
DISCID=3d102716
DTITLE=Bunny Berigan and His Orchestra - 1938
DYEAR=1995
DGENRE=Jazz
TTITLE0=The Pied Piper
TTITLE1=Tonight Will Live
TTITLE2=A Sky Of Blue And You
TTITLE3=(How To Make Love In) Ten Easy Lessons
TTITLE4=When A Prince Of A Fella Meets A Cinderella
TTITLE5=Livery Stable Blues
TTITLE6=Let This Be A Warning To You, Baby
TTITLE7=Why Doesn't Somebody Tell Me These Things
TTITLE8=High Society
TTITLE9=Father, Dear Father
TTITLE10=Simple And Sweet
TTITLE11=Button, Button (Who's Got The Button?)
TTITLE12=I Won't Tell A Sould I Love You
TTITLE13=Rockin' Rollers' Jubilee
TTITLE14=Sobbin' Blues
TTITLE15=I Cried For You
TTITLE16=Jelly Roll Blues
TTITLE17='Deed I Do
TTITLE18=In A Mist
TTITLE19=Flashes
TTITLE20=Davenport Blues
TTITLE21=Candelights
EXTD=YEAR: 1995
EXTT0=
EXTT1=
EXTT2=
EXTT3=
EXTT4=
EXTT5=
EXTT6=
EXTT7=
EXTT8=
EXTT9=
EXTT10=
EXTT11=
EXTT12=
EXTT13=
EXTT14=
EXTT15=
EXTT16=
EXTT17=
EXTT18=
EXTT19=
EXTT20=
EXTT21=
PLAYORDER=
